<svg xmlns="http://www.w3.org/2000/svg" width="24" height="24" fill="none"><path fill="#641310" d="M3.372 6.263h17.256v11.474H3.372z"/><path fill="#998E8D" d="M11 9.717h2v6.56h-2z"/><path fill="#998E8D" d="M6.057 19.11q-.816.252-1.526.565l-.386.177C2.82 17.844 2 15.067 2 12s.82-5.843 2.145-7.853l.387.178c1.975.866 4.6 1.395 7.48 1.395 3.061 0 5.835-.598 7.846-1.563v-.01l.004.007.018-.007v.035C21.19 6.188 22 8.95 22 12s-.81 5.81-2.12 7.817v.035l-.018-.007-.004.008v-.011a13.6 13.6 0 0 0-1.913-.737c.37-.548.696-1.147.975-1.788l.03.01C19.597 15.848 20 14.02 20 12l-.009-.505c-.06-1.82-.447-3.47-1.04-4.825-1.863.62-4.032.986-6.323 1.042l-.615.008c-2.53 0-4.927-.378-6.959-1.056-.593 1.355-.981 3.005-1.042 4.828L4 12c0 2.023.404 3.854 1.051 5.333l.028-.01c.28.641.606 1.24.977 1.787"/><path fill="#641310" d="M12.63 16.284c2.292.056 4.462.418 6.33 1.035-.28.642-.608 1.242-.981 1.79-1.727-.525-3.774-.83-5.967-.83-2.202 0-4.257.307-5.988.836a11 11 0 0 1-.984-1.79c2.038-.676 4.44-1.049 6.972-1.049z"/></svg>